# xmcd
#
# Track frame offsets:
#	150
#	19007
#	39964
#	60626
#	77091
#	95437
#	111270
#	126520
#	146081
#	160437
#	177517
#	196374
#	217331
#	237993
#	254458
#	272804
#	288635
#	303891
#	323452
#	337808
#
# Disc length: 4729 seconds
#
# Revision: 1
# Processed by: cddbd v1.5.2PL0 Copyright (c) Steve Scherf et al.
# Submitted via: audiograbber 1.83.01
#
DISCID=2c127714
DTITLE=Various Artist - This One's For The Girls
DYEAR=1900
DGENRE=Country
TTITLE0=Martina McBride - Anyway
TTITLE1=Sara Evans - You'll Always Be My Baby
TTITLE2=Carrie Underwood  - Wasted
TTITLE3=Faith Hill  - The Lucky One
TTITLE4=Martina McBride  - This One's For The Girls
TTITLE5=Sara Evans  - Cheatin' 
TTITLE6=Carrie Underwood  - Before He Cheats
TTITLE7=Faith Hill and Tim McGraw  - Like We Never Loved At All
TTITLE8=Martina McBride  - In My Daughter's Eyes
TTITLE9=Carrie Underwood  - Jesus, Take The Wheel
TTITLE10=Martina McBride  - Anyway Background Track
TTITLE11=Sara Evans  - You'll Always Be My Baby Background Track
TTITLE12=Carrie Underwood  - Wasted Background Track
TTITLE13=Faith Hill  - The Lucky One Background Track
TTITLE14=Martina McBride  - This One's For The Girls Background Track
TTITLE15=Sara Evans  - Cheatin' Background Track
TTITLE16=Carrie Underwood  - Before He Cheats Background Track
TTITLE17=Faith Hill and Tim McGraw  - Like We Never Loved At All Background Track
TTITLE18=Martina McBride  - In My Daughter's Eyes Background Track
TTITLE19=Carrie Underwood  - Jesus, Take The Wheel Background Track
EXTD=
EXTT0=
EXTT1=
EXTT2=
EXTT3=
EXTT4=
EXTT5=
EXTT6=
EXTT7=
EXTT8=
EXTT9=
EXTT10=
EXTT11=
EXTT12=
EXTT13=
EXTT14=
EXTT15=
EXTT16=
EXTT17=
EXTT18=
EXTT19=
PLAYORDER=
